# Blender v2.82 (sub 7) OBJ File: 'cube.blend'
# www.blender.org
mtllib cube.mtl
o Cube
v 1.000000 -1.000000 1.000000
v 1.000000 0.000000 1.000000
v 1.000000 -1.000000 0.000000
v 1.000000 0.000000 0.000000
v 0.000000 -1.000000 1.000000
v 0.000000 0.000000 1.000000
v 0.000000 -1.000000 0.000000
v 0.000000 0.000000 0.000000
vt 0.500387 0.997861
vt 0.251457 0.997861
vt 0.251457 0.665954
vt 0.500387 0.665954
vt 0.500387 0.334046
vt 0.251457 0.334046
vt 0.002526 0.665954
vt 0.002526 0.334046
vt 0.251457 0.002139
vt 0.500387 0.002139
vt 0.749318 0.334046
vt 0.749318 0.665954
vt 0.998248 0.334046
vt 0.998248 0.665954
vn 0.0000 -1.0000 0.0000
vn 0.0000 0.0000 -1.0000
vn -1.0000 0.0000 0.0000
vn 0.0000 1.0000 0.0000
vn 1.0000 0.0000 0.0000
vn 0.0000 0.0000 1.0000
usemtl Material
s off
f 1/1/1 5/2/1 7/3/1 3/4/1
f 4/5/2 3/4/2 7/3/2 8/6/2
f 8/6/3 7/3/3 5/7/3 6/8/3
f 6/9/4 2/10/4 4/5/4 8/6/4
f 2/11/5 1/12/5 3/4/5 4/5/5
f 6/13/6 5/14/6 1/12/6 2/11/6
