# Blender v2.82 (sub 7) OBJ File: 'direction_pyramid.blend'
# www.blender.org
mtllib direction_pyramid.mtl
o Cube
v 1.000000 0.000000 0.000000
v 0.000000 0.000000 1.000000
v 0.000000 -1.000000 0.000000
v 0.000000 0.000000 0.000000
vt 0.000000 0.000000
vt 0.375000 0.000000
vt 0.000000 0.000000
vt 0.375000 0.250000
vn 0.0000 0.0000 -1.0000
vn 0.5774 -0.5774 0.5774
vn 0.0000 1.0000 0.0000
vn -1.0000 0.0000 0.0000
usemtl Material
s off
f 3/1/1 4/2/1 1/3/1
f 1/3/2 2/4/2 3/1/2
f 4/2/3 2/4/3 1/3/3
f 4/2/4 3/1/4 2/4/4
