# Blender v2.82 (sub 7) OBJ File: 'light_diamond.blend'
# www.blender.org
mtllib light_diamond.mtl
o Plane
v -0.250000 0.000000 -0.250000
v -0.250000 0.000000 0.250000
v 0.250000 0.000000 0.250000
v 0.250000 0.000000 -0.250000
v 0.000000 0.500000 0.000000
v 0.000000 -0.500000 0.000000
vt 0.000000 0.000000
vt 0.000000 0.000000
vt 0.000000 0.000000
vt 0.000000 0.000000
vt 0.000000 0.000000
vt 0.000000 0.000000
vn 0.0000 0.4472 0.8944
vn 0.0000 0.4472 -0.8944
vn -0.8944 0.4472 0.0000
vn 0.8944 0.4472 0.0000
vn 0.0000 -0.4472 -0.8944
vn 0.8944 -0.4472 0.0000
vn 0.0000 -0.4472 0.8944
vn -0.8944 -0.4472 0.0000
usemtl None
s off
f 2/1/1 3/2/1 5/3/1
f 4/4/2 1/5/2 5/3/2
f 1/5/3 2/1/3 5/3/3
f 4/4/4 5/3/4 3/2/4
f 4/4/5 6/6/5 1/5/5
f 3/2/6 6/6/6 4/4/6
f 3/2/7 2/1/7 6/6/7
f 1/5/8 6/6/8 2/1/8
